<?xml version="1.0" encoding="UTF-8" standalone="no"?>
<svg
   id="Layer_1"
   viewBox="0 0 1071.932 984.15413"
   version="1.1"
   sodipodi:docname="openshift-logo.svg"
   width="1071.932"
   height="984.15411"
   inkscape:version="1.1 (c68e22c387, 2021-05-23)"
   xmlns:inkscape="http://www.inkscape.org/namespaces/inkscape"
   xmlns:sodipodi="http://sodipodi.sourceforge.net/DTD/sodipodi-0.dtd"
   xmlns="http://www.w3.org/2000/svg"
   xmlns:svg="http://www.w3.org/2000/svg">
  <defs
     id="defs19">
    <filter
       style="color-interpolation-filters:sRGB;"
       inkscape:label="Color Shift"
       id="filter1409"
       x="0"
       y="0"
       width="1"
       height="1">
      <feColorMatrix
         type="hueRotate"
         values="240"
         result="color1"
         id="feColorMatrix1405" />
      <feColorMatrix
         type="saturate"
         values="0.191929"
         result="color2"
         id="feColorMatrix1407" />
    </filter>
    <filter
       style="color-interpolation-filters:sRGB;"
       inkscape:label="Color Shift"
       id="filter1415"
       x="0"
       y="0"
       width="1"
       height="1">
      <feColorMatrix
         type="hueRotate"
         values="240"
         result="color1"
         id="feColorMatrix1411" />
      <feColorMatrix
         type="saturate"
         values="0.191929"
         result="color2"
         id="feColorMatrix1413" />
    </filter>
    <filter
       style="color-interpolation-filters:sRGB;"
       inkscape:label="Color Shift"
       id="filter1421"
       x="0"
       y="0"
       width="1"
       height="1">
      <feColorMatrix
         type="hueRotate"
         values="240"
         result="color1"
         id="feColorMatrix1417" />
      <feColorMatrix
         type="saturate"
         values="0.191929"
         result="color2"
         id="feColorMatrix1419" />
    </filter>
    <filter
       style="color-interpolation-filters:sRGB;"
       inkscape:label="Color Shift"
       id="filter1427"
       x="0"
       y="0"
       width="1"
       height="1">
      <feColorMatrix
         type="hueRotate"
         values="240"
         result="color1"
         id="feColorMatrix1423" />
      <feColorMatrix
         type="saturate"
         values="0.191929"
         result="color2"
         id="feColorMatrix1425" />
    </filter>
  </defs>
  <sodipodi:namedview
     id="namedview17"
     pagecolor="#ffffff"
     bordercolor="#666666"
     borderopacity="1.0"
     inkscape:pageshadow="2"
     inkscape:pageopacity="0.0"
     inkscape:pagecheckerboard="0"
     showgrid="false"
     lock-margins="false"
     fit-margin-top="0"
     fit-margin-left="0"
     fit-margin-right="0"
     fit-margin-bottom="0"
     inkscape:zoom="1"
     inkscape:cx="737.5"
     inkscape:cy="712.5"
     inkscape:window-width="3840"
     inkscape:window-height="2089"
     inkscape:window-x="0"
     inkscape:window-y="34"
     inkscape:window-maximized="1"
     inkscape:current-layer="g14" />
  <style
     id="style2">.st0{fill:#bb1c29}.st1{fill:#e12434}.st2{fill:#960f1b}</style>
  <g
     id="g14"
     transform="translate(748.34244,704.59025)">
    <path
       class="st0"
       d="m -437.08842,-263.39838 -172.34114,62.39935 c 2.22856,27.48546 6.68565,54.97088 13.37129,81.71349 l 163.42691,-59.42798 c -5.19994,-27.48545 -6.68563,-55.71375 -4.45706,-84.68486 m 760.678,-190.16952 c -11.88558,-24.51405 -25.99974,-49.02808 -42.34241,-71.31357 l -172.34113,62.39937 c 20.05694,20.7998 37.14251,43.82814 50.51377,68.34217 z"
       id="path6"
       style="stroke-width:7.42849;filter:url(#filter1427)" />
    <path
       class="st1"
       d="m -55.263743,-502.59598 c 35.656781,16.3427 66.856506,39.37102 92.856224,66.11362 L 209.9336,-498.88172 C 162.39122,-565.7382 97.020462,-621.45192 17.535543,-658.59441 -228.34771,-772.99325 -521.7733,-666.76574 -636.915,-420.13967 c -37.14249,79.48492 -51.25663,164.16977 -44.57097,245.88322 l 172.34112,-62.39935 c 2.97139,-37.1425 11.88559,-74.28497 28.97113,-110.68459 74.28497,-159.71268 265.19732,-229.54054 424.909977,-155.25559 m -529.651787,379.59618 -163.42691,59.427977 c 14.85699,59.4279615 40.85673,116.627366 76.51351,166.398303 L -500.23066,40.427129 C -544.0588,-4.1438615 -573.77278,-62.086138 -584.91553,-122.9998 m 713.13566,-64.62792 C 125.24876,-150.48525 116.33455,-113.34275 99.249,-76.943132 24.964029,82.769543 -165.94832,152.5974 -325.66099,77.569595 -361.31777,60.484067 -392.51748,38.198552 -418.51721,11.455981 l -171.59826,62.399352 c 47.54238,66.856487 112.1703,122.570207 191.6552,159.712667 245.88325,114.39885 539.30887,8.17136 654.45055,-238.4546945 37.14247,-79.4849165 50.51377,-164.1697755 44.57099,-245.8832555 z m 42.34245,-210.22645 -163.4269319,59.42798 c 30.4568329,54.22799 44.5709909,117.37023 40.1138759,179.76961 l 171.598256,-62.39938 c -5.19995,-61.65651 -21.54263,-121.82733 -48.2852,-176.79821"
       id="path8"
       style="stroke-width:7.42849;filter:url(#filter1421)" />
    <path
       class="st2"
       d="m -437.8313,-228.48444 c -0.74285,-11.14277 0,-23.02836 0.74288,-34.91394 l -172.34114,62.39935 c 0.74285,11.14274 2.22856,22.28551 3.71424,32.6854 z m 736.16399,-270.39728 c -5.19994,-8.91421 -11.14272,-17.8284 -17.08552,-25.99975 l -172.34113,62.39937 c 7.42851,7.4285 14.85699,15.59985 21.54267,24.51404 z"
       id="path10"
       style="stroke-width:7.42849;filter:url(#filter1415)" />
    <path
       class="st0"
       d="m -590.85833,73.855333 c 13.37131,18.571253 28.2283,36.399657 43.82814,53.485177 l 187.19811,-68.342167 c -21.54263,-13.371266 -41.59957,-29.713981 -58.68513,-47.542362 z m 890.67675,-323.882443 -171.59829,62.39939 c -1.48569,24.51404 -6.68563,49.77093 -14.85699,74.28497 l 187.19813,-68.34218 c 1.48569,-23.02835 1.48569,-46.05667 -0.74285,-68.34218"
       id="path12"
       style="stroke-width:7.42849;filter:url(#filter1409)" />
  </g>
</svg>
